<?xml version="1.0" standalone="no"?><!DOCTYPE svg PUBLIC "-//W3C//DTD SVG 1.1//EN" "http://www.w3.org/Graphics/SVG/1.1/DTD/svg11.dtd"><svg t="1606186002067" class="icon" viewBox="0 0 1024 1024" version="1.1" xmlns="http://www.w3.org/2000/svg" p-id="1511" xmlns:xlink="http://www.w3.org/1999/xlink" width="200" height="200"><defs><style type="text/css"></style></defs><path d="M128 220.8m11.52 0l92.16 0q11.52 0 11.52 11.52l0 92.16q0 11.52-11.52 11.52l-92.16 0q-11.52 0-11.52-11.52l0-92.16q0-11.52 11.52-11.52Z" fill="#666666" p-id="1512"></path><path d="M128 451.2m11.52 0l92.16 0q11.52 0 11.52 11.52l0 92.16q0 11.52-11.52 11.52l-92.16 0q-11.52 0-11.52-11.52l0-92.16q0-11.52 11.52-11.52Z" fill="#666666" p-id="1513"></path><path d="M128 681.6m11.52 0l92.16 0q11.52 0 11.52 11.52l0 92.16q0 11.52-11.52 11.52l-92.16 0q-11.52 0-11.52-11.52l0-92.16q0-11.52 11.52-11.52Z" fill="#666666" p-id="1514"></path><path d="M283.52 220.8h581.76c6.4 0 11.52 5.12 11.52 11.52v92.16c0 6.4-5.12 11.52-11.52 11.52H283.52a11.52 11.52 0 0 1-11.52-11.52V232.32c0-6.4 5.12-11.52 11.52-11.52zM283.52 451.2h581.76c6.4 0 11.52 5.12 11.52 11.52v92.16c0 6.4-5.12 11.52-11.52 11.52H283.52a11.52 11.52 0 0 1-11.52-11.52V462.72c0-6.4 5.12-11.52 11.52-11.52zM283.52 681.6h581.76c6.4 0 11.52 5.12 11.52 11.52v92.16c0 6.4-5.12 11.52-11.52 11.52H283.52a11.52 11.52 0 0 1-11.52-11.52V693.12c0-6.4 5.12-11.52 11.52-11.52z" fill="#666666" p-id="1515"></path></svg>