<?xml version="1.0" standalone="no"?><!DOCTYPE svg PUBLIC "-//W3C//DTD SVG 1.1//EN" "http://www.w3.org/Graphics/SVG/1.1/DTD/svg11.dtd"><svg t="1606186039134" class="icon" viewBox="0 0 1024 1024" version="1.1" xmlns="http://www.w3.org/2000/svg" p-id="2267" xmlns:xlink="http://www.w3.org/1999/xlink" width="200" height="200"><defs><style type="text/css"></style></defs><path d="M663 592.6c-44.4 0-80.5 36.1-80.5 80.5s36.1 80.5 80.5 80.5 80.5-36.1 80.5-80.5-36.1-80.5-80.5-80.5z m0 127.2c-25.8 0-46.7-21-46.7-46.7s21-46.7 46.7-46.7c25.8 0 46.7 21 46.7 46.7s-20.9 46.7-46.7 46.7z" fill="#828282" p-id="2268"></path><path d="M848 636.7c-4-20.7-19-34.5-39-34.5-10.6 0-19.2-8.6-19.2-19.1 0-1.6 1-5.3 1.7-6.8 8.3-18.7 1.7-41-17.1-53.9l-42.1-23.3-1.5-0.7c-5.4-2.3-11.2-3.5-17-3.5-12.2 0.3-24.1 4.8-32.5 13.4-4.8 5-13.7 11-16.3 11.4-3.3-0.5-12.3-6.6-17.3-11.8-8.5-8.6-20.2-13.5-32.2-13.5-6.1 0.4-12 1.2-17.7 3.6l-45.7 25-1.7 1.1c-16.4 11.6-22.5 33.4-14.6 51.9 0.7 1.8 1.8 5.3 1.8 7 0 10.6-8.6 19.1-20.8 19.1-18.3 0-33.3 13.9-37.2 34.5-0.6 3.4-3.8 21.4-3.8 36.5 0 15.2 3.2 33.1 3.8 36.6 3.9 20.6 19 34.5 38.9 34.5 10.6 0 19.2 8.6 19.2 19.1 0 1.6-1.1 5.3-1.7 6.8-8.3 18.6-1.7 40.9 17 53.8l41.3 23 1.7 0.8c17 7.1 36.9 2.9 49.9-10.7 4.7-5.1 14-11.6 16.6-12.2 3.4 0.6 12.6 7.1 17.6 12.6 8.2 8.9 20.5 14.2 32.9 14.2 6.2 0 12-1.3 19.6-4.7l42.9-23.7 1.5-1c16.3-11.6 22.5-33.4 14.7-51.6-1.2-3-1.9-6.1-1.9-7.3 0-10.6 8.6-19.1 20.8-19.1 18.4 0 33.3-13.8 37.3-34.7 0.9-4.9 3.9-21.9 3.9-36.3-0.1-15.2-3.8-33.1-3.8-36.5z m-33.4 66.9c-0.8 4.3-2.7 7-5.7 7-29.2 0-52.9 23.7-52.9 52.9 0 8 2.8 16 4.5 20.4 1.7 3.9 0.4 8.6-2.5 10.7L717.6 817c-2.4 1.1-3.6 1.2-4.7 1.2-3.1 0-6.3-1.3-8-3.2-0.9-1-21.6-23.5-42.1-23.5-20.4 0-41 22.1-41.6 22.8-3 3.2-7.5 4.2-11.6 2.8l-38.9-21.5c-4-2.8-5.7-7.6-3.9-11.7 0.7-1.8 4.5-11 4.5-20.3 0-29.2-23.7-52.9-54.3-52.9-1.7 0-3.5-3-4.3-7-0.3-1.8-3.3-17.9-3.3-30.3 0-12.4 2.9-28.6 3.3-30.3 0.9-4.6 2.9-7 5.7-7 29.2 0 52.9-23.7 52.9-52.9 0-9.7-4.1-19.4-4.5-20.4-1.7-3.9-0.4-8.6 2.5-10.7l42.3-23.2c1-0.4 2.2-0.7 3.6-0.7 3-0.1 6.1 1.2 8.1 3.3 0.9 0.9 21.4 22.1 41.2 22.1 19.7 0 40.1-20.8 40.9-21.7 1.9-1.9 5-3.2 8.1-3.2 1.1-0.3 2.2 0.2 3.3 0.6l39.8 21.9c4 2.8 5.7 7.6 3.9 11.7-0.5 1.1-4.5 10.8-4.5 20.3 0 29.2 23.7 52.9 54.3 52.9 1.7 0 3.5 3 4.3 7 1.2 6.5 3.3 20.2 3.3 30.3 0 9.1-1.7 21.5-3.3 30.2z" fill="#828282" p-id="2269"></path><path d="M473.8 817H210.3c-2.4 0-0.3-5.2-0.3-7.5v-57.1C210 645.1 273.1 550 373.8 510l38.5-15.7-34-26.1c-36.1-28.2-57.1-70.3-57.1-115.5 0-81 66.3-147 148-147s148.1 65.9 148.1 147c0 28.9-8.5 56.8-24.4 80.7-5.2 7.8-3.1 18.2 4.6 23.4 7.7 5.2 18.2 3.1 23.4-4.7 19.7-29.5 30.1-63.8 30.1-99.4 0-99.6-81.6-180.7-181.9-180.7-100.3 0-181.9 81.1-181.9 180.7 0 50.5 22.9 97.8 59.9 132-105.6 48.2-171 151.7-171 267.8v57.1c0 20.9 13.3 41.5 34.3 41.5h263.5c9.3 0 16.9-7.7 16.9-17s-7.6-17.1-17-17.1z" fill="#828282" p-id="2270"></path></svg>